<svg width="121" height="121" viewBox="0 0 121 121" fill="none" xmlns="http://www.w3.org/2000/svg">
<path d="M111.103 0.165527H9.29646C4.28817 0.165527 0.228149 4.22748 0.228149 9.23815V111.093C0.228149 116.104 4.28817 120.166 9.29646 120.166H111.103C116.111 120.166 120.171 116.104 120.171 111.093V9.23815C120.171 4.22748 116.111 0.165527 111.103 0.165527Z" fill="url(#paint0_linear_42_1420)"/>
<g style="mix-blend-mode:overlay">
<path d="M5.70205 88.5272C5.67283 88.7607 5.55897 88.9752 5.38207 89.1302C5.20518 89.2852 4.97757 89.3698 4.74244 89.368C4.48527 89.368 4.2386 89.2659 4.05662 89.0841C3.87464 88.9022 3.77223 88.6556 3.77186 88.3983C3.77186 88.1408 3.87412 87.8938 4.05614 87.7117C4.23815 87.5296 4.48503 87.4273 4.74244 87.4273C4.97757 87.4255 5.20518 87.5101 5.38207 87.6651C5.55897 87.82 5.67283 88.0346 5.70205 88.268H12.9046C13.3808 88.2676 13.8373 88.0782 14.1741 87.7414C14.5108 87.4045 14.7001 86.9477 14.7004 86.4713V73.7751H11.0361C11.0056 73.9819 10.9019 74.1708 10.7439 74.3074C10.5859 74.4441 10.3841 74.5195 10.1752 74.5199C9.9436 74.5199 9.72149 74.4278 9.55772 74.264C9.39396 74.1001 9.30195 73.8779 9.30195 73.6462C9.30195 73.4145 9.39396 73.1923 9.55772 73.0284C9.72149 72.8646 9.9436 72.7725 10.1752 72.7725C10.3841 72.7729 10.5859 72.8483 10.7439 72.985C10.9019 73.1217 11.0056 73.3105 11.0361 73.5173H14.7004V57.3333C14.4938 57.3027 14.305 57.199 14.1684 57.0409C14.0318 56.8829 13.9564 56.681 13.9561 56.472C13.9568 56.2417 14.0483 56.021 14.2109 55.8579C14.3734 55.6948 14.5936 55.6025 14.8238 55.6011C15.0554 55.6011 15.2775 55.6931 15.4413 55.857C15.6051 56.0208 15.6971 56.243 15.6971 56.4748C15.6967 56.6837 15.6213 56.8856 15.4847 57.0437C15.3481 57.2017 15.1593 57.3055 14.9527 57.336V73.52C15.6026 73.5269 16.2236 73.79 16.6807 74.2523C17.1378 74.7145 17.3942 75.3385 17.3942 75.9888V94.0476C17.627 94.0782 17.8408 94.1925 17.9957 94.3691C18.1505 94.5458 18.2359 94.7727 18.2359 95.0077C18.2359 95.2652 18.1337 95.5122 17.9516 95.6943C17.7696 95.8764 17.5228 95.9787 17.2653 95.9787C17.0079 95.9787 16.7611 95.8764 16.579 95.6943C16.397 95.5122 16.2948 95.2652 16.2948 95.0077C16.2948 94.7727 16.3801 94.5458 16.535 94.3691C16.6899 94.1925 16.9036 94.0782 17.1365 94.0476V75.9833C17.1358 75.4034 16.9073 74.8471 16.5003 74.4342C16.0933 74.0214 15.5404 73.7851 14.9609 73.7765V86.4713C14.9609 87.017 14.7443 87.5402 14.3586 87.926C13.973 88.3118 13.45 88.5286 12.9046 88.5286L5.70205 88.5272ZM41.6696 16.0354C41.8785 16.035 42.0802 15.9596 42.2382 15.8229C42.3962 15.6863 42.4999 15.4974 42.5305 15.2907H46.4292C47.0144 15.2914 47.5753 15.5243 47.9891 15.9382C48.4029 16.3522 48.6356 16.9134 48.6363 17.4988V35.5577C48.4036 35.5886 48.19 35.7029 48.0352 35.8795C47.8804 36.0561 47.7949 36.2829 47.7946 36.5177C47.795 36.775 47.8974 37.0217 48.0794 37.2035C48.2614 37.3853 48.508 37.4874 48.7652 37.4874C49.0224 37.4874 49.269 37.3853 49.451 37.2035C49.633 37.0217 49.7354 36.775 49.7358 36.5177C49.7355 36.2829 49.65 36.0561 49.4952 35.8795C49.3404 35.7029 49.1268 35.5886 48.8941 35.5577V17.4988C48.8941 16.8441 48.6341 16.2161 48.1713 15.7532C47.7086 15.2902 47.0809 15.0301 46.4265 15.0301H42.5277C42.4972 14.8233 42.3935 14.6345 42.2355 14.4978C42.0775 14.3611 41.8757 14.2857 41.6668 14.2853C41.4352 14.2853 41.2131 14.3774 41.0494 14.5412C40.8856 14.7051 40.7936 14.9273 40.7936 15.159C40.7932 15.2742 40.8156 15.3883 40.8595 15.4948C40.9034 15.6013 40.9679 15.6981 41.0494 15.7795C41.1308 15.861 41.2275 15.9255 41.3339 15.9694C41.4404 16.0133 41.5544 16.0358 41.6696 16.0354ZM33.8118 55.4091H29.9116C29.8814 55.2025 29.778 55.0136 29.6202 54.8769C29.4624 54.7402 29.2608 54.6647 29.0521 54.6643C28.8205 54.6643 28.5984 54.7564 28.4346 54.9202C28.2708 55.0841 28.1788 55.3063 28.1788 55.538C28.1788 55.7697 28.2708 55.9919 28.4346 56.1558C28.5984 56.3196 28.8205 56.4116 29.0521 56.4116C29.2606 56.4113 29.462 56.336 29.6198 56.1996C29.7775 56.0632 29.8811 55.8746 29.9116 55.6683H33.8118C34.3969 55.669 34.9578 55.9019 35.3716 56.3158C35.7854 56.7298 36.0181 57.291 36.0188 57.8765V75.9353C35.7853 75.9642 35.5705 76.078 35.4153 76.255C35.2601 76.432 35.1754 76.6599 35.1771 76.8953C35.1771 77.1529 35.2794 77.3999 35.4614 77.582C35.6434 77.7641 35.8903 77.8664 36.1477 77.8664C36.4051 77.8664 36.652 77.7641 36.834 77.582C37.016 77.3999 37.1183 77.1529 37.1183 76.8953C37.1201 76.6599 37.0353 76.432 36.8801 76.255C36.7249 76.078 36.5101 75.9642 36.2766 75.9353V57.8765C36.2762 57.2224 36.0164 56.5952 35.5543 56.1326C35.0922 55.67 34.4655 55.4098 33.8118 55.4091ZM56.7272 25.9844C56.9621 25.9844 57.1889 25.899 57.3655 25.7441C57.542 25.5891 57.6562 25.3752 57.6868 25.1423H75.7371C76.3915 25.1423 77.0192 24.8822 77.4819 24.4192C77.9447 23.9563 78.2046 23.3283 78.2046 22.6736V9.82102C78.4112 9.79077 78.5999 9.6873 78.7366 9.52945C78.8732 9.37161 78.9486 9.16988 78.949 8.96107C78.949 8.84634 78.9265 8.73274 78.8826 8.62675C78.8387 8.52075 78.7744 8.42443 78.6933 8.3433C78.6122 8.26217 78.5159 8.19783 78.41 8.15393C78.304 8.11002 78.1905 8.08741 78.0758 8.08741C77.9601 8.08686 77.8454 8.10934 77.7384 8.15351C77.6315 8.19769 77.5344 8.26268 77.4527 8.34474C77.3711 8.4268 77.3066 8.52426 77.2629 8.63148C77.2193 8.7387 77.1973 8.85354 77.1984 8.96931C77.1989 9.17812 77.2743 9.37983 77.4109 9.53767C77.5475 9.69552 77.7363 9.799 77.9428 9.82926V22.6818C77.9421 23.2672 77.7093 23.8284 77.2956 24.2424C76.8818 24.6564 76.3208 24.8892 75.7357 24.89H57.6841C57.6535 24.657 57.5393 24.4431 57.3627 24.2882C57.1862 24.1332 56.9593 24.0478 56.7245 24.0478C56.4671 24.0478 56.2202 24.1501 56.0382 24.3322C55.8562 24.5143 55.7539 24.7613 55.7539 25.0189C55.7554 25.2759 55.8586 25.5219 56.0411 25.7029C56.2235 25.8839 56.4703 25.9852 56.7272 25.9844ZM63.5254 82.2717V90.051C63.5246 90.6363 63.2918 91.1974 62.878 91.6111C62.4642 92.0248 61.9033 92.2574 61.3183 92.2578H43.268C43.2371 92.0251 43.1228 91.8115 42.9462 91.6569C42.7697 91.5022 42.543 91.417 42.3084 91.417C42.051 91.417 41.8041 91.5193 41.6221 91.7014C41.4401 91.8835 41.3378 92.1305 41.3378 92.3881C41.3382 92.6454 41.4406 92.892 41.6226 93.0738C41.8046 93.2556 42.0512 93.3577 42.3084 93.3577C42.543 93.3578 42.7697 93.2725 42.9462 93.1179C43.1228 92.9632 43.2371 92.7497 43.268 92.517H61.3183C61.9727 92.517 62.6003 92.2569 63.0631 91.7939C63.5259 91.3309 63.7858 90.703 63.7858 90.0482V82.269C63.9923 82.2387 64.1811 82.1352 64.3178 81.9774C64.4544 81.8195 64.5298 81.6178 64.5302 81.409C64.5302 81.1773 64.4382 80.9551 64.2745 80.7913C64.1107 80.6274 63.8886 80.5354 63.657 80.5354C63.4254 80.5354 63.2033 80.6274 63.0395 80.7913C62.8757 80.9551 62.7837 81.1773 62.7837 81.409C62.7834 81.6179 62.8581 81.8199 62.9943 81.9783C63.1304 82.1367 63.3189 82.2408 63.5254 82.2717ZM116.304 60.5208C116.072 60.5208 115.85 60.6128 115.686 60.7766C115.523 60.9405 115.431 61.1627 115.431 61.3944C115.431 61.6032 115.506 61.8049 115.643 61.9628C115.78 62.1206 115.969 62.2241 116.175 62.2543V70.0336C116.174 70.619 115.942 71.1803 115.528 71.5942C115.114 72.0082 114.553 72.2411 113.968 72.2418H95.9163C95.8854 72.0089 95.7711 71.7952 95.5946 71.6403C95.4181 71.4855 95.1915 71.3999 94.9567 71.3996C94.6995 71.4 94.453 71.5025 94.2713 71.6846C94.0896 71.8666 93.9875 72.1134 93.9875 72.3707C93.9878 72.6278 94.0901 72.8742 94.2718 73.056C94.4534 73.2377 94.6998 73.34 94.9567 73.3404C95.1913 73.3404 95.418 73.2552 95.5945 73.1005C95.771 72.9459 95.8854 72.7323 95.9163 72.4996H113.967C114.621 72.4996 115.249 72.2395 115.711 71.7766C116.174 71.3136 116.434 70.6856 116.434 70.0309V62.2516C116.641 62.2213 116.829 62.1179 116.966 61.96C117.103 61.8022 117.178 61.6005 117.179 61.3917C117.178 61.2769 117.155 61.1634 117.111 61.0575C117.067 60.9517 117.002 60.8556 116.921 60.7747C116.839 60.6938 116.743 60.6298 116.637 60.5862C116.531 60.5426 116.417 60.5204 116.303 60.5208H116.304ZM118.113 47.7656C118.113 48.0231 118.011 48.2701 117.829 48.4522C117.647 48.6343 117.4 48.7366 117.143 48.7366C116.908 48.7384 116.68 48.6536 116.503 48.4983C116.326 48.3431 116.212 48.1282 116.183 47.8945H105.737C105.568 48.0288 105.359 48.1022 105.144 48.103C104.928 48.1022 104.719 48.0288 104.55 47.8945H103.227V50.0752C103.46 50.1058 103.674 50.2201 103.829 50.3967C103.983 50.5734 104.069 50.8003 104.069 51.0353C104.069 51.1628 104.044 51.2891 103.995 51.4069C103.946 51.5247 103.875 51.6317 103.785 51.7219C103.694 51.8121 103.587 51.8836 103.47 51.9324C103.352 51.9812 103.226 52.0063 103.098 52.0063C102.841 52.0063 102.594 51.904 102.412 51.7219C102.23 51.5398 102.128 51.2928 102.128 51.0353C102.128 50.8003 102.213 50.5734 102.368 50.3967C102.523 50.2201 102.737 50.1058 102.969 50.0752V47.8945H92.0025V73.206C92.0016 73.5776 92.074 73.9458 92.2156 74.2894C92.3572 74.633 92.5652 74.9452 92.8277 75.2082C93.0902 75.4712 93.402 75.6798 93.7452 75.8219C94.0885 75.9641 94.4563 76.0371 94.8278 76.0368H109.847C110.663 76.0379 111.445 76.3626 112.022 76.9398C112.599 77.517 112.924 78.2996 112.925 79.1158V99.3705C113.158 99.3997 113.372 99.5136 113.527 99.6906C113.682 99.8676 113.767 100.095 113.765 100.331C113.765 100.458 113.74 100.584 113.692 100.702C113.643 100.82 113.572 100.927 113.482 101.017C113.392 101.107 113.285 101.179 113.167 101.228C113.049 101.276 112.923 101.302 112.796 101.302C112.538 101.302 112.292 101.199 112.11 101.017C111.928 100.835 111.825 100.588 111.825 100.331C111.825 100.096 111.91 99.869 112.065 99.6924C112.22 99.5158 112.433 99.4014 112.666 99.3705V79.109C112.665 78.3612 112.368 77.6443 111.839 77.1154C111.311 76.5865 110.595 76.2889 109.847 76.2878H94.8278C94.0119 76.2867 93.2298 75.9619 92.6528 75.3847C92.0759 74.8075 91.7513 74.025 91.7502 73.2087V47.8973H85.9336C85.9232 48.7066 85.5947 49.4793 85.0193 50.0483C84.4439 50.6173 83.6678 50.9369 82.8588 50.9379H69.0774C68.3297 50.9386 67.6129 51.2361 67.0842 51.765C66.5556 52.294 66.2582 53.0111 66.2575 53.7591V100.501H70.5072V92.3839C70.5072 91.7292 70.7672 91.1013 71.2299 90.6383C71.6927 90.1753 72.3203 89.9152 72.9748 89.9152H91.025C91.0559 89.6824 91.1702 89.4687 91.3467 89.3138C91.5232 89.1589 91.7499 89.0734 91.9846 89.0731C92.2418 89.0735 92.4883 89.1759 92.6701 89.358C92.8518 89.5401 92.9538 89.7868 92.9538 90.0441C92.9538 90.3014 92.8518 90.5482 92.6701 90.7303C92.4883 90.9124 92.2418 91.0148 91.9846 91.0152C91.7499 91.0149 91.5232 90.9294 91.3467 90.7745C91.1702 90.6196 91.0559 90.4059 91.025 90.1731H72.9693C72.3842 90.1738 71.8232 90.4067 71.4094 90.8206C70.9957 91.2346 70.7629 91.7958 70.7622 92.3812V100.498H79.4659C80.1203 100.498 80.7479 100.758 81.2107 101.221C81.6735 101.684 81.9334 102.312 81.9334 102.967V106.867C82.14 106.898 82.3288 107.002 82.4655 107.16C82.6021 107.318 82.6774 107.52 82.6778 107.729C82.6774 107.96 82.5853 108.182 82.4216 108.346C82.2579 108.51 82.036 108.602 81.8046 108.602C81.573 108.602 81.3508 108.51 81.1871 108.346C81.0233 108.182 80.9313 107.96 80.9313 107.729C80.9316 107.52 81.0068 107.318 81.1431 107.16C81.2795 107.002 81.468 106.898 81.6743 106.867V102.967C81.674 102.381 81.4414 101.819 81.0276 101.405C80.6138 100.991 80.0526 100.758 79.4672 100.757H70.7636V103.986C70.9702 104.016 71.159 104.12 71.2956 104.278C71.4322 104.436 71.5076 104.638 71.5079 104.847C71.5079 105.079 71.4159 105.301 71.2522 105.465C71.0884 105.629 70.8663 105.721 70.6347 105.721C70.4031 105.721 70.181 105.629 70.0172 105.465C69.8535 105.301 69.7615 105.079 69.7615 104.847C69.7618 104.638 69.8372 104.436 69.9738 104.278C70.1104 104.12 70.2992 104.016 70.5058 103.986V100.757H66.2561V110.312C66.4895 110.342 66.7039 110.456 66.8588 110.633C67.0137 110.81 67.0983 111.037 67.0965 111.273C67.0965 111.53 66.9942 111.777 66.8122 111.959C66.6302 112.141 66.3833 112.244 66.1259 112.244C65.8687 112.243 65.6222 112.141 65.4405 111.959C65.2588 111.777 65.1567 111.53 65.1567 111.273C65.1549 111.037 65.2395 110.81 65.3944 110.633C65.5493 110.456 65.7637 110.342 65.9971 110.312V100.757H46.2839V106.087C46.4902 106.117 46.6786 106.221 46.815 106.379C46.9514 106.537 47.0266 106.738 47.0269 106.947C47.0269 107.179 46.9349 107.401 46.7712 107.565C46.6074 107.728 46.3853 107.82 46.1537 107.82C45.9221 107.82 45.7 107.728 45.5362 107.565C45.3725 107.401 45.2804 107.179 45.2804 106.947C45.2812 106.738 45.3567 106.536 45.4933 106.379C45.6298 106.221 45.8184 106.117 46.0248 106.087V100.757H38.5262V109.001C38.7595 109.031 38.974 109.144 39.1289 109.321C39.2838 109.498 39.3683 109.726 39.3665 109.961C39.3665 110.219 39.2644 110.465 39.0827 110.648C38.901 110.83 38.6545 110.932 38.3973 110.932C38.2699 110.932 38.1436 110.907 38.0259 110.859C37.9081 110.81 37.8011 110.738 37.711 110.648C37.6209 110.558 37.5494 110.451 37.5006 110.333C37.4518 110.215 37.4267 110.089 37.4267 109.961C37.4249 109.726 37.5095 109.498 37.6644 109.321C37.8193 109.144 38.0338 109.031 38.2671 109.001V100.757H13.49C13.4594 100.99 13.3451 101.204 13.1686 101.359C12.992 101.514 12.7652 101.599 12.5304 101.599C12.2729 101.599 12.0261 101.497 11.8441 101.315C11.662 101.133 11.5598 100.886 11.5598 100.628C11.5601 100.371 11.6626 100.124 11.8445 99.9424C12.0265 99.7606 12.2732 99.6585 12.5304 99.6585C12.765 99.6585 12.9917 99.7437 13.1682 99.8984C13.3447 100.053 13.4591 100.267 13.49 100.499H38.2657V65.6228C38.2664 64.806 38.5911 64.023 39.1683 63.4454C39.7456 62.8679 40.5283 62.5431 41.3447 62.5424H49.5466C49.9174 62.5424 50.2846 62.4692 50.6272 62.3271C50.9698 62.185 51.2809 61.9767 51.543 61.7142C51.805 61.4516 52.0127 61.14 52.1543 60.7971C52.2958 60.4541 52.3684 60.0867 52.3679 59.7157V47.8918H33.2799V49.5376C33.2799 50.1923 33.0199 50.8203 32.5571 51.2832C32.0944 51.7462 31.4667 52.0063 30.8123 52.0063H23.511C23.4804 52.2393 23.3662 52.4531 23.1897 52.6081C23.0131 52.763 22.7863 52.8484 22.5514 52.8484C22.294 52.8484 22.0471 52.7461 21.8651 52.564C21.6831 52.3819 21.5808 52.1349 21.5808 51.8774C21.5808 51.6199 21.6831 51.3729 21.8651 51.1908C22.0471 51.0087 22.294 50.9064 22.5514 50.9064C22.7863 50.9064 23.0131 50.9918 23.1897 51.1467C23.3662 51.3017 23.4804 51.5155 23.511 51.7485H30.8123C31.3974 51.7477 31.9584 51.5149 32.3721 51.1009C32.7859 50.687 33.0187 50.1257 33.0194 49.5403V47.8945H18.5814V68.6744C18.8141 68.7053 19.0277 68.8197 19.1825 68.9963C19.3373 69.1728 19.4228 69.3996 19.4231 69.6345C19.4227 69.8918 19.3203 70.1384 19.1383 70.3202C18.9564 70.5021 18.7097 70.6042 18.4525 70.6042C18.1953 70.6042 17.9487 70.5021 17.7667 70.3202C17.5847 70.1384 17.4823 69.8918 17.4819 69.6345C17.4822 69.3996 17.5677 69.1728 17.7225 68.9963C17.8773 68.8197 18.0909 68.7053 18.3237 68.6744V47.8973H10.751C9.96706 47.8983 9.21557 48.2104 8.66127 48.7649C8.10697 49.3195 7.79508 50.0713 7.79399 50.8556V57.0577C8.0005 57.0879 8.18928 57.1914 8.32592 57.3492C8.46255 57.5071 8.53795 57.7088 8.53838 57.9176C8.53838 58.1493 8.44637 58.3715 8.28261 58.5354C8.11884 58.6992 7.89674 58.7912 7.66514 58.7912C7.43354 58.7912 7.21143 58.6992 7.04766 58.5354C6.8839 58.3715 6.79189 58.1493 6.79189 57.9176C6.79231 57.7088 6.86772 57.5071 7.00435 57.3492C7.14099 57.1914 7.32976 57.0879 7.53628 57.0577V50.8556C7.53917 50.0041 7.87901 49.1885 8.48145 48.587C9.08389 47.9856 9.89989 47.6473 10.751 47.6463H18.3237V21.6106C18.3229 21.0252 18.0902 20.464 17.6764 20.05C17.2627 19.6361 16.7017 19.4032 16.1166 19.4025H12.2192C12.1892 19.6092 12.0858 19.7982 11.928 19.935C11.7702 20.0717 11.5684 20.1471 11.3596 20.1472C11.128 20.1472 10.9059 20.0552 10.7422 19.8913C10.5784 19.7275 10.4864 19.5053 10.4864 19.2735C10.4864 19.0418 10.5784 18.8196 10.7422 18.6558C10.9059 18.4919 11.128 18.3999 11.3596 18.3999C11.5684 18.4 11.7702 18.4754 11.928 18.6121C12.0858 18.7489 12.1892 18.9379 12.2192 19.1446H16.1193C16.7737 19.1446 17.4014 19.4047 17.8641 19.8677C18.3269 20.3307 18.5869 20.9586 18.5869 21.6134V47.6463H33.0276V18.607C32.8211 18.5767 32.6323 18.4733 32.4957 18.3154C32.3591 18.1576 32.2837 17.9559 32.2832 17.7471C32.2832 17.5153 32.3752 17.2931 32.539 17.1293C32.7028 16.9655 32.9249 16.8734 33.1565 16.8734C33.3881 16.8734 33.6102 16.9655 33.7739 17.1293C33.9377 17.2931 34.0297 17.5153 34.0297 17.7471C34.0293 17.9559 33.9539 18.1576 33.8173 18.3154C33.6806 18.4733 33.4918 18.5767 33.2853 18.607V47.6463H52.3733V12.2994C52.1671 12.2688 51.9786 12.1652 51.8423 12.0074C51.7059 11.8496 51.6307 11.648 51.6303 11.4394C51.6303 11.2077 51.7223 10.9855 51.8861 10.8217C52.0499 10.6578 52.272 10.5658 52.5036 10.5658C52.7352 10.5658 52.9573 10.6578 53.121 10.8217C53.2848 10.9855 53.3768 11.2077 53.3768 11.4394C53.3764 11.6482 53.301 11.8499 53.1644 12.0078C53.0277 12.1656 52.8389 12.2691 52.6324 12.2994V47.6463H85.6841V25.2081C85.4775 25.1776 85.2887 25.0738 85.1521 24.9157C85.0155 24.7577 84.9401 24.5558 84.9397 24.3468C84.9397 24.1151 85.0317 23.8929 85.1955 23.7291C85.3593 23.5652 85.5814 23.4732 85.813 23.4732C86.0446 23.4732 86.2667 23.5652 86.4305 23.7291C86.5942 23.8929 86.6862 24.1151 86.6862 24.3468C86.6858 24.5558 86.6105 24.7577 86.4739 24.9157C86.3373 25.0738 86.1485 25.1776 85.9419 25.2081V47.6463H91.7557V18.6399C91.5492 18.6097 91.3604 18.5062 91.2238 18.3483C91.0871 18.1905 91.0118 17.9888 91.0113 17.78C91.0113 17.5483 91.1033 17.3261 91.2671 17.1622C91.4309 16.9984 91.653 16.9063 91.8846 16.9063C92.1162 16.9063 92.3383 16.9984 92.502 17.1622C92.6658 17.3261 92.7578 17.5483 92.7578 17.78C92.7574 17.9886 92.6822 18.1901 92.5459 18.3479C92.4095 18.5058 92.2211 18.6094 92.0148 18.6399V47.6463H102.982V32.0191C102.981 31.4337 102.748 30.8725 102.335 30.4585C101.921 30.0446 101.36 29.8117 100.775 29.811H96.8745C96.8446 30.0177 96.7412 30.2067 96.5834 30.3435C96.4256 30.4802 96.2238 30.5555 96.015 30.5557C95.7834 30.5557 95.5613 30.4636 95.3975 30.2998C95.2338 30.136 95.1418 29.9138 95.1418 29.6821C95.1418 29.4503 95.2338 29.2281 95.3975 29.0643C95.5613 28.9004 95.7834 28.8084 96.015 28.8084C96.2238 28.8085 96.4256 28.8839 96.5834 29.0206C96.7412 29.1574 96.8446 29.3464 96.8745 29.5531H100.775C101.429 29.5531 102.057 29.8132 102.519 30.2762C102.982 30.7392 103.242 31.3671 103.242 32.0219V47.6463H104.339C104.246 47.4943 104.196 47.3198 104.195 47.1415C104.193 46.9063 104.278 46.6786 104.433 46.5016C104.588 46.3246 104.802 46.2107 105.035 46.1815V28.1185C105.035 27.4638 105.295 26.8358 105.758 26.3728C106.221 25.9099 106.848 25.6498 107.503 25.6498H111.403C111.433 25.4432 111.537 25.2543 111.694 25.1176C111.852 24.9809 112.054 24.9055 112.263 24.905C112.494 24.905 112.716 24.9971 112.88 25.1609C113.044 25.3248 113.136 25.547 113.136 25.7787C113.136 26.0104 113.044 26.2326 112.88 26.3965C112.716 26.5603 112.494 26.6523 112.263 26.6523C112.054 26.652 111.853 26.5767 111.695 26.4403C111.537 26.3039 111.434 26.1153 111.403 25.909H107.481C106.896 25.9097 106.335 26.1426 105.921 26.5565C105.507 26.9705 105.275 27.5317 105.274 28.1172V46.176C105.507 46.2049 105.722 46.3187 105.877 46.4957C106.033 46.6727 106.117 46.9006 106.116 47.136C106.115 47.3145 106.065 47.4893 105.97 47.6408H116.185C116.214 47.4071 116.327 47.1922 116.504 47.0369C116.681 46.8817 116.909 46.7969 117.144 46.7987C117.401 46.7994 117.647 46.9018 117.828 47.0835C118.01 47.2653 118.112 47.5115 118.112 47.7683L118.113 47.7656ZM85.6773 47.8945H52.6269V59.7157C52.6259 60.5322 52.3011 61.3149 51.7239 61.8922C51.1466 62.4694 50.3641 62.794 49.548 62.7947H41.3461C40.5982 62.7954 39.8811 63.0931 39.3524 63.6223C38.8237 64.1515 38.5265 64.8691 38.5262 65.6173V100.494H46.0248V98.2993C46.0248 97.6446 46.2848 97.0166 46.7476 96.5537C47.2103 96.0907 47.838 95.8306 48.4924 95.8306H55.7813C55.8122 95.5978 55.9265 95.384 56.103 95.2292C56.2795 95.0743 56.5062 94.9888 56.7409 94.9885C56.9981 94.9888 57.2446 95.0913 57.4263 95.2734C57.6081 95.4555 57.7101 95.7022 57.7101 95.9595C57.7101 96.2168 57.6081 96.4636 57.4263 96.6456C57.2446 96.8277 56.9981 96.9302 56.7409 96.9306C56.5062 96.9303 56.2795 96.8447 56.103 96.6898C55.9265 96.535 55.8122 96.3213 55.7813 96.0884H48.4924C47.9073 96.0892 47.3463 96.322 46.9325 96.736C46.5188 97.1499 46.286 97.7112 46.2853 98.2966V100.491H65.9984V53.7495C65.9995 52.933 66.3243 52.1502 66.9015 51.573C67.4787 50.9958 68.2613 50.6712 69.0774 50.6705H82.8588C83.5978 50.6695 84.307 50.3784 84.8338 49.8598C85.3606 49.3412 85.663 48.6365 85.6759 47.8973L85.6773 47.8945Z" fill="url(#paint1_radial_42_1420)"/>
</g>
<path d="M60.9526 75.496V20.1377H99.552V31.0039H74.3326V42.3567H97.5788V53.25H74.3326V64.6298H99.552V75.496H60.9526Z" fill="#BEE7FF"/>
<path opacity="0.7" d="M20.8472 36.3723C23.6753 36.098 28.206 35.1283 30.7174 33.957V75.5553H20.8472V36.3723Z" fill="#BEE7FF"/>
<path d="M20.8472 20.1377H34.1186C30.9272 23.4294 25.8769 26.2314 20.8472 27.2203V20.1377Z" fill="white"/>
<path d="M65.0358 60.4769C65.0358 65.1081 63.4181 68.7792 60.1829 71.4903C56.9476 74.2013 52.437 75.5564 46.651 75.5555H44.2369V20.1377H45.7846C51.4134 20.1377 55.8194 21.4269 59.0026 24.0054C62.1857 26.5838 63.7768 30.0835 63.7759 34.5044C63.7759 37.7686 62.921 40.4797 61.211 42.6375C59.5011 44.7954 57.2245 46.2945 54.3813 47.1348C57.5892 47.8205 60.1669 49.4129 62.1144 51.9118C64.062 54.4107 65.0358 57.2658 65.0358 60.4769Z" fill="white"/>
<path d="M97.3033 86.3122C97.2596 85.8718 97.0722 85.5297 96.741 85.2859C96.4098 85.042 95.9603 84.9201 95.3926 84.9201C95.0068 84.9201 94.681 84.9747 94.4154 85.0839C94.1497 85.1894 93.9459 85.3368 93.8039 85.5261C93.6656 85.7153 93.5965 85.93 93.5965 86.1702C93.5892 86.3704 93.631 86.5451 93.722 86.6943C93.8167 86.8436 93.9459 86.9728 94.1096 87.0819C94.2734 87.1875 94.4627 87.2803 94.6774 87.3604C94.8921 87.4368 95.1214 87.5023 95.3653 87.5569L96.3698 87.7971C96.8574 87.9063 97.3051 88.0519 97.7127 88.2338C98.1203 88.4158 98.4734 88.6396 98.7718 88.9053C99.0703 89.171 99.3014 89.484 99.4651 89.8443C99.6326 90.2046 99.7181 90.6177 99.7217 91.0836C99.7181 91.7678 99.5434 92.361 99.1976 92.8633C98.8555 93.3619 98.3606 93.7495 97.7127 94.0261C97.0685 94.299 96.2915 94.4355 95.3816 94.4355C94.479 94.4355 93.6929 94.2972 93.0233 94.0206C92.3572 93.744 91.8368 93.3346 91.4619 92.7923C91.0907 92.2464 90.896 91.5712 90.8778 90.7669H93.1652C93.1907 91.1418 93.298 91.4548 93.4873 91.7059C93.6802 91.9534 93.9368 92.1408 94.257 92.2682C94.5809 92.3919 94.9467 92.4538 95.3543 92.4538C95.7547 92.4538 96.1023 92.3956 96.397 92.2791C96.6955 92.1627 96.9266 92.0007 97.0904 91.7933C97.2542 91.5858 97.336 91.3474 97.336 91.0781C97.336 90.827 97.2614 90.6159 97.1122 90.4448C96.9666 90.2738 96.7519 90.1282 96.468 90.0081C96.1878 89.888 95.8438 89.7788 95.4362 89.6805L94.2188 89.3748C93.2762 89.1455 92.5319 88.787 91.986 88.2993C91.4401 87.8117 91.1689 87.1547 91.1726 86.3286C91.1689 85.6516 91.3491 85.0602 91.713 84.5543C92.0806 84.0484 92.5847 83.6535 93.2252 83.3697C93.8658 83.0858 94.5937 82.9438 95.4089 82.9438C96.2387 82.9438 96.963 83.0858 97.5817 83.3697C98.2041 83.6535 98.6881 84.0484 99.0339 84.5543C99.3796 85.0602 99.5579 85.6462 99.5689 86.3122H97.3033Z" fill="#BEE7FF"/>
<path d="M81.825 94.2772V83.0967H89.3587V85.0456H84.1888V87.7097H88.9711V89.6587H84.1888V92.3282H89.3805V94.2772H81.825Z" fill="#BEE7FF"/>
<path d="M77.8166 86.3122C77.7729 85.8718 77.5854 85.5297 77.2543 85.2859C76.9231 85.042 76.4736 84.9201 75.9058 84.9201C75.52 84.9201 75.1943 84.9747 74.9286 85.0839C74.6629 85.1894 74.4591 85.3368 74.3172 85.5261C74.1789 85.7153 74.1097 85.93 74.1097 86.1702C74.1025 86.3704 74.1443 86.5451 74.2353 86.6943C74.3299 86.8436 74.4591 86.9728 74.6229 87.0819C74.7867 87.1875 74.9759 87.2803 75.1907 87.3604C75.4054 87.4368 75.6347 87.5023 75.8785 87.5569L76.883 87.7971C77.3707 87.9063 77.8184 88.0519 78.226 88.2338C78.6336 88.4158 78.9867 88.6396 79.2851 88.9053C79.5835 89.171 79.8146 89.484 79.9784 89.8443C80.1458 90.2046 80.2314 90.6177 80.235 91.0836C80.2314 91.7678 80.0567 92.361 79.7109 92.8633C79.3688 93.3619 78.8738 93.7495 78.226 94.0261C77.5818 94.299 76.8048 94.4355 75.8949 94.4355C74.9923 94.4355 74.2062 94.2972 73.5365 94.0206C72.8705 93.744 72.3501 93.3346 71.9752 92.7923C71.604 92.2464 71.4092 91.5712 71.3911 90.7669H73.6785C73.7039 91.1418 73.8113 91.4548 74.0006 91.7059C74.1935 91.9534 74.45 92.1408 74.7703 92.2682C75.0942 92.3919 75.46 92.4538 75.8676 92.4538C76.268 92.4538 76.6155 92.3956 76.9103 92.2791C77.2088 92.1627 77.4399 92.0007 77.6036 91.7933C77.7674 91.5858 77.8493 91.3474 77.8493 91.0781C77.8493 90.827 77.7747 90.6159 77.6255 90.4448C77.4799 90.2738 77.2652 90.1282 76.9813 90.0081C76.7011 89.888 76.3571 89.7788 75.9495 89.6805L74.7321 89.3748C73.7895 89.1455 73.0452 88.787 72.4993 88.2993C71.9534 87.8117 71.6822 87.1547 71.6859 86.3286C71.6822 85.6516 71.8624 85.0602 72.2263 84.5543C72.5939 84.0484 73.098 83.6535 73.7385 83.3697C74.3791 83.0858 75.107 82.9438 75.9222 82.9438C76.752 82.9438 77.4763 83.0858 78.095 83.3697C78.7173 83.6535 79.2014 84.0484 79.5471 84.5543C79.8929 85.0602 80.0712 85.6462 80.0821 86.3122H77.8166Z" fill="#BEE7FF"/>
<path d="M69.7981 83.0967V94.2772H67.7563L62.8921 87.2402H62.8102V94.2772H60.4464V83.0967H62.5209L67.3469 90.1282H67.4451V83.0967H69.7981Z" fill="#BEE7FF"/>
<path d="M51.0336 94.2772V83.0967H58.5673V85.0456H53.3974V87.7097H58.1797V89.6587H53.3974V92.3282H58.5892V94.2772H51.0336Z" fill="#BEE7FF"/>
<path d="M41.0801 94.2772V83.0967H45.4911C46.3391 83.0967 47.0616 83.2586 47.6584 83.5826C48.2553 83.9028 48.7102 84.3487 49.0232 84.9201C49.3399 85.4878 49.4982 86.1429 49.4982 86.8854C49.4982 87.6278 49.3381 88.2829 49.0178 88.8507C48.6975 89.4185 48.2335 89.8607 47.6257 90.1773C47.0215 90.4939 46.29 90.6522 45.4311 90.6522H42.6196V88.7579H45.0489C45.5039 88.7579 45.8787 88.6796 46.1735 88.5232C46.472 88.363 46.694 88.1428 46.8396 87.8626C46.9888 87.5787 47.0634 87.253 47.0634 86.8854C47.0634 86.5142 46.9888 86.1902 46.8396 85.9136C46.694 85.6334 46.472 85.4169 46.1735 85.264C45.8751 85.1075 45.4966 85.0292 45.038 85.0292H43.4439V94.2772H41.0801Z" fill="#BEE7FF"/>
<path d="M32.3069 83.0967L34.5616 86.9072H34.6489L36.9145 83.0967H39.5841L36.1721 88.6869L39.6605 94.2772H36.9418L34.6489 90.4612H34.5616L32.2687 94.2772H29.561L33.0603 88.6869L29.6265 83.0967H32.3069Z" fill="#BEE7FF"/>
<path d="M20.6776 94.2772V83.0967H28.2113V85.0456H23.0414V87.7097H27.8237V89.6587H23.0414V92.3282H28.2331V94.2772H20.6776Z" fill="#BEE7FF"/>
<defs>
<linearGradient id="paint0_linear_42_1420" x1="2.88353" y1="117.508" x2="117.569" y2="2.87805" gradientUnits="userSpaceOnUse">
<stop offset="0.12" stop-color="#1E88E5"/>
<stop offset="0.92" stop-color="#5E35B1"/>
</linearGradient>
<radialGradient id="paint1_radial_42_1420" cx="0" cy="0" r="1" gradientUnits="userSpaceOnUse" gradientTransform="translate(60.9427 60.1655) scale(80.514 80.5523)">
<stop stop-color="white" stop-opacity="0"/>
<stop offset="0.3" stop-color="white" stop-opacity="0.01"/>
<stop offset="0.44" stop-color="white" stop-opacity="0.04"/>
<stop offset="0.54" stop-color="white" stop-opacity="0.09"/>
<stop offset="0.63" stop-color="white" stop-opacity="0.16"/>
<stop offset="0.71" stop-color="white" stop-opacity="0.25"/>
<stop offset="0.78" stop-color="white" stop-opacity="0.37"/>
<stop offset="0.84" stop-color="white" stop-opacity="0.5"/>
<stop offset="0.9" stop-color="white" stop-opacity="0.66"/>
<stop offset="0.96" stop-color="white" stop-opacity="0.83"/>
<stop offset="1" stop-color="white"/>
</radialGradient>
</defs>
</svg>
