<svg width="226" height="43" viewBox="0 0 226 43" fill="none" xmlns="http://www.w3.org/2000/svg">
<path d="M24.5061 34.663V0.875702H48.092V7.50777H32.6819V14.4368H46.8863V21.0854H32.6819V28.0309H48.092V34.663H24.5061Z" fill="#5E35B1"/>
<path d="M0 10.7844C1.72809 10.617 4.49656 10.0251 6.03115 9.31027V34.6993H0V10.7844Z" fill="#1E88E5"/>
<path d="M0 0.875702H8.10938C6.15931 2.88472 3.07337 4.59491 0 5.19846V0.875702Z" fill="#1E88E5"/>
<path d="M27.0011 25.4963C27.0011 28.3228 26.0126 30.5635 24.0358 32.2181C22.0589 33.8728 19.3027 34.6998 15.7672 34.6992H14.2921V0.875702H15.2378C18.6773 0.875702 21.3695 1.66256 23.3145 3.2363C25.2596 4.81003 26.2318 6.94601 26.2313 9.64424C26.2313 11.6365 25.7089 13.2912 24.664 14.6082C23.6192 15.9252 22.2281 16.8402 20.4908 17.353C22.4509 17.7716 24.026 18.7434 25.216 20.2686C26.4061 21.7938 27.0011 23.5363 27.0011 25.4963Z" fill="#1E88E5"/>
<path d="M225.465 17.3343L219.508 17.7005C219.406 17.1919 219.187 16.7342 218.851 16.3273C218.515 15.9103 218.072 15.5797 217.522 15.3356C216.983 15.0813 216.336 14.9541 215.582 14.9541C214.574 14.9541 213.724 15.1677 213.031 15.595C212.339 16.012 211.993 16.5715 211.993 17.2733C211.993 17.8327 212.217 18.3057 212.665 18.6923C213.113 19.0788 213.882 19.389 214.971 19.623L219.218 20.4774C221.499 20.9453 223.2 21.698 224.32 22.7355C225.44 23.773 226 25.1361 226 26.8246C226 28.3605 225.547 29.7083 224.641 30.8678C223.744 32.0274 222.512 32.9327 220.944 33.5837C219.386 34.2245 217.589 34.5449 215.552 34.5449C212.446 34.5449 209.971 33.899 208.128 32.6072C206.295 31.3052 205.221 29.5353 204.905 27.2976L211.305 26.9619C211.499 27.9079 211.967 28.63 212.711 29.1285C213.454 29.6167 214.406 29.8608 215.567 29.8608C216.708 29.8608 217.624 29.6421 218.317 29.2048C219.019 28.7572 219.376 28.1825 219.386 27.4806C219.376 26.8907 219.126 26.4075 218.637 26.0312C218.149 25.6446 217.395 25.3497 216.377 25.1462L212.314 24.3376C210.022 23.8798 208.316 23.0865 207.196 21.9574C206.086 20.8283 205.531 19.389 205.531 17.6395C205.531 16.1341 205.939 14.8372 206.753 13.7488C207.578 12.6604 208.734 11.8212 210.221 11.2313C211.718 10.6413 213.469 10.3463 215.475 10.3463C218.439 10.3463 220.771 10.9719 222.472 12.223C224.182 13.4742 225.18 15.1779 225.465 17.3343Z" fill="#5E35B1"/>
<path d="M190.928 34.5449C188.515 34.5449 186.437 34.0567 184.696 33.0802C182.965 32.0935 181.631 30.7 180.694 28.8996C179.757 27.089 179.289 24.9479 179.289 22.4761C179.289 20.0654 179.757 17.9497 180.694 16.129C181.631 14.3082 182.95 12.8893 184.65 11.8721C186.361 10.8549 188.367 10.3463 190.669 10.3463C192.216 10.3463 193.657 10.5956 194.991 11.094C196.336 11.5822 197.507 12.3197 198.505 13.3063C199.513 14.293 200.297 15.5339 200.857 17.0292C201.417 18.5143 201.697 20.2536 201.697 22.2473V24.0324H181.885V20.0044H195.572C195.572 19.0686 195.368 18.2396 194.961 17.5174C194.554 16.7952 193.988 16.2307 193.265 15.8238C192.553 15.4068 191.723 15.1983 190.776 15.1983C189.788 15.1983 188.912 15.4271 188.148 15.8849C187.395 16.3324 186.804 16.9376 186.376 17.7005C185.949 18.4532 185.73 19.2924 185.719 20.218V24.0477C185.719 25.2073 185.933 26.2092 186.361 27.0534C186.799 27.8977 187.415 28.5487 188.209 29.0064C189.004 29.4641 189.946 29.693 191.035 29.693C191.758 29.693 192.42 29.5913 193.021 29.3878C193.622 29.1844 194.136 28.8793 194.564 28.4724C194.991 28.0655 195.317 27.5671 195.541 26.9771L201.56 27.3738C201.254 28.8182 200.628 30.0795 199.681 31.1577C198.744 32.2258 197.532 33.0598 196.045 33.66C194.569 34.2499 192.863 34.5449 190.928 34.5449Z" fill="#5E35B1"/>
<path d="M175.603 17.3343L169.646 17.7005C169.544 17.1919 169.325 16.7342 168.989 16.3273C168.653 15.9103 168.21 15.5797 167.66 15.3356C167.12 15.0813 166.474 14.9541 165.72 14.9541C164.712 14.9541 163.862 15.1677 163.169 15.595C162.477 16.012 162.13 16.5715 162.13 17.2733C162.13 17.8327 162.354 18.3057 162.803 18.6923C163.251 19.0788 164.019 19.389 165.109 19.623L169.356 20.4774C171.637 20.9453 173.337 21.698 174.458 22.7355C175.578 23.773 176.138 25.1361 176.138 26.8246C176.138 28.3605 175.685 29.7083 174.778 30.8678C173.882 32.0274 172.65 32.9327 171.082 33.5837C169.524 34.2245 167.726 34.5449 165.69 34.5449C162.584 34.5449 160.109 33.899 158.266 32.6072C156.433 31.3052 155.358 29.5353 155.043 27.2976L161.443 26.9619C161.637 27.9079 162.105 28.63 162.848 29.1285C163.592 29.6167 164.544 29.8608 165.705 29.8608C166.845 29.8608 167.762 29.6421 168.454 29.2048C169.157 28.7572 169.513 28.1825 169.524 27.4806C169.513 26.8907 169.264 26.4075 168.775 26.0312C168.286 25.6446 167.533 25.3497 166.514 25.1462L162.451 24.3376C160.16 23.8798 158.454 23.0865 157.334 21.9574C156.224 20.8283 155.669 19.389 155.669 17.6395C155.669 16.1341 156.076 14.8372 156.891 13.7488C157.716 12.6604 158.872 11.8212 160.358 11.2313C161.855 10.6413 163.607 10.3463 165.613 10.3463C168.577 10.3463 170.909 10.9719 172.609 12.223C174.32 13.4742 175.318 15.1779 175.603 17.3343Z" fill="#5E35B1"/>
<path d="M135.83 20.5384V34.0872H129.323V10.6515H135.525V14.7863H135.8C136.319 13.4233 137.19 12.3451 138.412 11.5517C139.634 10.7481 141.116 10.3463 142.857 10.3463C144.486 10.3463 145.907 10.7024 147.119 11.4144C148.331 12.1264 149.273 13.1436 149.945 14.4659C150.617 15.7781 150.953 17.3445 150.953 19.1652V34.0872H144.446V20.3248C144.456 18.8906 144.089 17.7717 143.346 16.9681C142.603 16.1544 141.579 15.7475 140.276 15.7475C139.4 15.7475 138.626 15.9357 137.954 16.3121C137.292 16.6884 136.772 17.2377 136.396 17.9599C136.029 18.6719 135.841 19.5314 135.83 20.5384Z" fill="#5E35B1"/>
<path d="M114.308 34.5449C111.894 34.5449 109.817 34.0567 108.075 33.0802C106.344 32.0935 105.01 30.7 104.073 28.8996C103.136 27.089 102.668 24.9479 102.668 22.4761C102.668 20.0654 103.136 17.9497 104.073 16.129C105.01 14.3082 106.329 12.8893 108.029 11.8721C109.74 10.8549 111.746 10.3463 114.048 10.3463C115.596 10.3463 117.037 10.5956 118.371 11.094C119.715 11.5822 120.886 12.3197 121.884 13.3063C122.892 14.293 123.676 15.5339 124.236 17.0292C124.797 18.5143 125.077 20.2536 125.077 22.2473V24.0324H105.265V20.0044H118.951C118.951 19.0686 118.748 18.2396 118.34 17.5174C117.933 16.7952 117.368 16.2307 116.645 15.8238C115.932 15.4068 115.102 15.1983 114.155 15.1983C113.167 15.1983 112.291 15.4271 111.527 15.8849C110.774 16.3324 110.183 16.9376 109.756 17.7005C109.328 18.4532 109.109 19.2924 109.099 20.218V24.0477C109.099 25.2073 109.313 26.2092 109.74 27.0534C110.178 27.8977 110.794 28.5487 111.589 29.0064C112.383 29.4641 113.325 29.693 114.414 29.693C115.138 29.693 115.799 29.5913 116.4 29.3878C117.001 29.1844 117.515 28.8793 117.943 28.4724C118.371 28.0655 118.697 27.5671 118.921 26.9771L124.939 27.3738C124.634 28.8182 124.007 30.0795 123.06 31.1577C122.123 32.2258 120.912 33.0598 119.425 33.66C117.948 34.2499 116.242 34.5449 114.308 34.5449Z" fill="#5E35B1"/>
<path d="M76.3945 42.8756V10.6515H82.8101V14.588H83.1004C83.3855 13.9573 83.7979 13.3165 84.3376 12.6655C84.8876 12.0043 85.6004 11.4551 86.4762 11.0177C87.3621 10.5701 88.462 10.3463 89.7756 10.3463C91.4864 10.3463 93.0649 10.7939 94.5109 11.689C95.957 12.574 97.1128 13.9115 97.9784 15.7018C98.844 17.4818 99.2768 19.7145 99.2768 22.3999C99.2768 25.014 98.8542 27.2213 98.009 29.0217C97.1739 30.8119 96.0334 32.1698 94.5873 33.0954C93.1514 34.0109 91.5425 34.4686 89.7604 34.4686C88.4976 34.4686 87.4232 34.2601 86.5373 33.8431C85.6615 33.426 84.9436 32.9022 84.3835 32.2715C83.8234 31.6307 83.3957 30.9848 83.1004 30.3338H82.9018V42.8756H76.3945ZM82.7643 22.3693C82.7643 23.7629 82.9578 24.9784 83.3448 26.0159C83.7317 27.0534 84.2918 27.8621 85.025 28.4419C85.7582 29.0115 86.6493 29.2963 87.6982 29.2963C88.7573 29.2963 89.6534 29.0064 90.3866 28.4266C91.1198 27.8367 91.6748 27.0229 92.0516 25.9854C92.4386 24.9377 92.6321 23.7324 92.6321 22.3693C92.6321 21.0165 92.4437 19.8264 92.0669 18.7991C91.6901 17.7717 91.1351 16.9681 90.4019 16.3884C89.6687 15.8086 88.7675 15.5187 87.6982 15.5187C86.6391 15.5187 85.743 15.7984 85.0098 16.3578C84.2867 16.9173 83.7317 17.7107 83.3448 18.738C82.9578 19.7654 82.7643 20.9758 82.7643 22.3693Z" fill="#5E35B1"/>
<path d="M57.1326 10.6515L61.4402 18.8449L65.8548 10.6515H72.53L65.7326 22.3694L72.7133 34.0872H66.0686L61.4402 25.9854L56.8882 34.0872H50.1671L57.1326 22.3694L50.4115 10.6515H57.1326Z" fill="#5E35B1"/>
</svg>
